<?xml version="1.0" encoding="UTF-8" standalone="no"?>
<svg
   xmlns:dc="http://purl.org/dc/elements/1.1/"
   xmlns:cc="http://creativecommons.org/ns#"
   xmlns:rdf="http://www.w3.org/1999/02/22-rdf-syntax-ns#"
   xmlns:svg="http://www.w3.org/2000/svg"
   xmlns="http://www.w3.org/2000/svg"
   xmlns:sodipodi="http://sodipodi.sourceforge.net/DTD/sodipodi-0.dtd"
   xmlns:inkscape="http://www.inkscape.org/namespaces/inkscape"
   version="1.1"
   x="0px"
   y="0px"
   viewBox="0 0 654.7 198.7"
   style="enable-background:new 0 0 654.7 198.7;"
   xml:space="preserve"
   id="svg48"
   sodipodi:docname="cinc-horizontal-white.svg"
   inkscape:version="0.92.1 r15371"
   inkscape:export-filename="/home/lance/git/cinc/artwork/projects/cinc/horizontal/white/cinc-horizontal-white.png"
   inkscape:export-xdpi="96"
   inkscape:export-ydpi="96"><metadata
     id="metadata54"><rdf:RDF><cc:Work
         rdf:about=""><dc:format>image/svg+xml</dc:format><dc:type
           rdf:resource="http://purl.org/dc/dcmitype/StillImage" /><dc:title></dc:title></cc:Work></rdf:RDF></metadata><defs
     id="defs52" /><sodipodi:namedview
     pagecolor="#414141"
     bordercolor="#666666"
     borderopacity="1"
     objecttolerance="10"
     gridtolerance="10"
     guidetolerance="10"
     inkscape:pageopacity="0"
     inkscape:pageshadow="2"
     inkscape:window-width="1920"
     inkscape:window-height="1016"
     id="namedview50"
     showgrid="false"
     inkscape:pagecheckerboard="true"
     inkscape:zoom="2.127692"
     inkscape:cx="327.35001"
     inkscape:cy="99.349998"
     inkscape:window-x="0"
     inkscape:window-y="464"
     inkscape:window-maximized="1"
     inkscape:current-layer="svg48" /><style
     type="text/css"
     id="style2">
	.st0{display:none;}
	.st1{display:inline;fill:none;}
	.st2{display:inline;}
	.st3{fill:#231F20;}
</style><g
     id="Layer_1"
     class="st0"><path
       class="st1"
       d="M398.4,67.1h-21.3v28.1h21.2c10.4,0,17.8-5.3,17.8-14.2v-0.2C416.1,72.2,409.6,67.1,398.4,67.1L398.4,67.1z    M467.2,97.6h-21.8V122h23.2c10.5,0,17-4.6,17-12.3v-0.2C485.6,101.9,479.2,97.6,467.2,97.6L467.2,97.6z M481.7,78.3v-0.2   c0-6.8-5.4-11.3-15.3-11.3h-21v23.8h20.4C475.2,90.7,481.7,86.4,481.7,78.3L481.7,78.3z M538,65.9c-15.8,0-27.1,12.6-27.1,28.3v0.2   c0,15.7,11.5,28.5,27.3,28.5s27.1-12.6,27.1-28.3v-0.2C565.3,78.7,553.8,65.9,538,65.9L538,65.9z M307.8,103.6h31.8l-15.9-35.4   L307.8,103.6z M615.9,67.1h-21.3v28.1h21.2c10.4,0,17.8-5.3,17.8-14.2v-0.2C633.6,72.2,627.1,67.1,615.9,67.1L615.9,67.1z    M96.5,80.2l63.9-20.5c0-0.1-0.1-0.2-0.1-0.3c-2.4-4.2-5.2-8.2-8.3-11.9L95.4,76.7L136.5,34c-32.8-21.2-76.6-11.7-97.8,21.1   S27,131.7,59.8,152.8c0.2,0.1,0.4,0.2,0.5,0.3l1.2-13.1l34.3,15.1l0.7,9.1c0.6,0,1.3,0.1,1.9,0.1c33.3,0,62.1-23.3,69.1-55.8   l-72.2-25l73.6,5.3c-0.2-3.7-0.8-7.4-1.6-11.1L96.5,80.2z M61,96.3v-8h2.8V71.8H61v-4.7l15.4-15.1V51c0-0.8,0.7-1.5,1.5-1.5   c0.8,0,1.5,0.7,1.5,1.5v1.1l15.4,15.1v4.7h-2.8v16.4h2.8v8H91l2,24.1l-28.5-12.6l1-11.5L61,96.3z M94.1,134.9l0.5,5.9l-31.9-14   l0.5-5.4L94.1,134.9z M63.5,117.2l0.5-5.4l29.2,12.9l0.5,5.8L63.5,117.2z M61.9,136.1l0.5-5.4l32.6,14.4l0.5,5.8L61.9,136.1z"
       id="path4" /><path
       class="st2"
       d="M93.3,124.7L64,111.8L93.3,124.7z M274.6,59.4c-2.2,0-3.9,1.8-4,4v27.3h-39.9V63.3c0-2.2-1.7-3.9-3.9-3.9   s-3.9,1.7-3.9,3.9v62.2c0,2.2,1.7,3.9,3.9,3.9s3.9-1.7,3.9-3.9l0,0V97.9h39.9v27.7c0,2.2,1.7,3.9,3.8,4c2.2,0,3.9-1.7,4-3.8   c0,0,0-0.1,0-0.1V63.3C278.4,61.2,276.7,59.4,274.6,59.4L274.6,59.4z M328.9,62.5c-0.7-2.1-2.6-3.5-4.8-3.5h-0.4   c-2.5,0-4,1.3-4.9,3.5l-28,61.3c-0.3,0.6-0.5,1.4-0.5,2.1c0,2,1.6,3.5,3.5,3.6c0,0,0,0,0,0c1.7,0,3.2-1.1,3.8-2.7l7.2-16.1h37.9   l7.2,15.9c0.6,1.7,2.1,2.8,3.9,2.9c2.1,0,3.8-1.7,3.8-3.8c0,0,0,0,0,0c0-0.7-0.2-1.4-0.5-2L328.9,62.5z M307.8,103.6l15.9-35.4   l15.9,35.4H307.8z M399,59.9h-25.9c-2.1,0-3.9,1.8-3.9,4v61.7c0,2.2,1.7,3.9,3.9,3.9s3.9-1.7,3.9-3.9l0,0v-23.4H397l19.5,25.3   c0.8,1.2,2.2,2,3.7,2.1c2.1-0.1,3.8-1.7,4-3.9c0-1.1-0.5-2.1-1.3-2.9l-17.2-22.1c10.8-2.1,18.5-8.7,18.5-20.1v-0.2   c0.1-5.1-1.8-10-5.3-13.6C414.3,62.4,407.5,59.9,399,59.9L399,59.9z M416.1,80.9c0,8.9-7.4,14.2-17.8,14.2h-21.2V67.1h21.3   c11.2,0,17.7,5.1,17.7,13.6L416.1,80.9z M478.6,93.2c5.4-2.4,11-7,11-16V77c0.1-4.1-1.5-8.1-4.4-11.1c-4-3.9-10.2-6.1-18.1-6.1   h-25.6c-2.1,0-3.9,1.8-3.9,4V125c0,2.1,1.7,3.9,3.9,3.9h26.9c15.1,0,25.1-7,25.1-18.9v-0.2C493.5,100.4,486.8,95.7,478.6,93.2   L478.6,93.2z M445.4,66.9h21c9.9,0,15.3,4.4,15.3,11.3v0.2c0,8.1-6.5,12.3-15.9,12.3h-20.4L445.4,66.9z M485.6,109.6   c0,7.7-6.5,12.3-17,12.3h-23.2V97.6h21.8c12,0,18.4,4.3,18.4,11.9L485.6,109.6z M538.2,58.7c-21,0-35.4,16.7-35.4,35.8v0.2   c0,19.1,14.1,35.6,35.2,35.6s35.4-16.7,35.4-35.8v-0.2C573.4,75.2,559.2,58.7,538.2,58.7z M565.3,94.6c0,15.7-11.3,28.3-27.1,28.3   c-15.8,0-27.3-12.8-27.3-28.5v-0.2c0-15.7,11.3-28.3,27.1-28.3c15.8,0,27.3,12.8,27.3,28.5V94.6z M616.5,59.9h-25.9   c-2.1,0-3.9,1.8-3.9,4v61.7c0,2.2,1.7,3.9,3.8,4c2.2,0,3.9-1.7,4-3.8c0,0,0-0.1,0-0.1v-23.4h19.9l19.5,25.3c0.8,1.2,2.2,2,3.7,2.1   c2.1-0.1,3.8-1.7,4-3.9c0-1.1-0.5-2.1-1.3-2.9l-17.2-22.1c10.8-2.1,18.5-8.7,18.5-20v-0.2c0.1-5.1-1.8-10-5.3-13.6   C631.8,62.4,625,59.8,616.5,59.9L616.5,59.9z M633.6,80.9c0,8.9-7.4,14.2-17.8,14.2h-21.2V67.1h21.3c11.2,0,17.7,5.1,17.7,13.6   V80.9z M61.5,140.1l-1.2,13.1c10.8,6.9,23.3,10.8,36.1,11.1l-0.7-9.1L61.5,140.1z M64.4,107.8l28.5,12.6l-2-24.1h3.7v-8h-2.8V71.8   h2.8v-4.7L79.3,52.1V51c0-0.8-0.7-1.4-1.5-1.4c-0.8,0-1.4,0.6-1.4,1.4v1.1L61,67.1v4.7h2.8v16.4H61v8h4.4L64.4,107.8z M68.2,71.8   h19.2v16.4h-4.6v-7c0-2.8-2.2-5.1-5-5.1c-2.8,0-5.1,2.2-5.1,5c0,0,0,0.1,0,0.1v7h-4.6L68.2,71.8z M62.7,126.7l31.9,14l-0.5-5.8   l-30.9-13.6C63.2,121.2,62.7,126.7,62.7,126.7z M62.4,130.7l-0.5,5.4l33.5,14.8l-0.5-5.8L62.4,130.7z M64,111.8l-0.5,5.4l30.2,13.3   l-0.5-5.8C93.3,124.7,64,111.8,64,111.8z M163.9,58.5l12-3.9c-0.1-0.1-0.1-0.2-0.2-0.3c-2.6-5.1-5.7-9.9-9.3-14.4l-11.3,5.8   C158.6,49.7,161.5,54,163.9,58.5z"
       id="path6" /><path
       class="st2"
       d="M161.2,65.3c0,0.1,0.1,0.2,0.1,0.3l3.4-1.1c-2.4-4.5-5.3-8.8-8.7-12.7l-3.3,1.7C156,57,158.8,61,161.2,65.3   L161.2,65.3z M173.4,95l12.5,0.9c-0.2-4.3-0.7-8.6-1.5-12.8l-12.6,0.4C172.7,87.3,173.2,91.1,173.4,95L173.4,95z"
       id="path8" /><path
       class="st2"
       d="M168.2,83.7c0.8,3.6,1.4,7.3,1.6,11.1l3.6,0.3c-0.2-3.8-0.8-7.7-1.6-11.4L168.2,83.7z"
       id="path10" /><path
       class="st2"
       d="M99.3,173.8c-0.6,0-1.1,0-1.6,0l0.5,5.8l-37.7-12l0.4-4.5c-35.1-21.2-46.4-66.9-25.1-102s66.9-46.4,102-25.1   c0.7,0.4,1.4,0.9,2.1,1.3l8.8-9.1C109.2,1,55.2,10.8,28,50.2s-17.4,93.4,22,120.7c39.4,27.2,93.4,17.4,120.7-22   c6.1-8.8,10.5-18.7,13-29.1l-11.8-4.1C164.3,149.6,134.1,173.8,99.3,173.8z"
       id="path12" /><path
       class="st2"
       d="M99.3,170.3c-0.6,0-1.3,0-1.9,0l0.3,3.5c0.5,0,1.1,0,1.6,0c34.8,0,64.9-24.2,72.5-58.1l-3.3-1.2   C161.4,147,132.6,170.2,99.3,170.3L99.3,170.3z M28.6,99.5c0-39,31.6-70.7,70.7-70.8c13.5,0,26.8,3.9,38.2,11.1l2.5-2.6   C105.5,14.9,59.5,24.6,37.1,59s-12.7,80.4,21.7,102.8c0.7,0.5,1.4,0.9,2.1,1.3l0.4-4C40.9,146.1,28.6,123.7,28.6,99.5L28.6,99.5z    M60.5,167.6l37.7,12l-0.5-5.8c-13-0.3-25.7-3.9-36.8-10.7L60.5,167.6z"
       id="path14" /><path
       class="st2"
       d="M60.9,163.1c11.1,6.7,23.8,10.4,36.8,10.7l-0.3-3.5c-12.8-0.3-25.3-4.2-36.1-11.1L60.9,163.1z M156.1,51.7   l11.3-5.8c-0.5-0.6-1-1.3-1.5-1.9c-4.4-5.2-9.4-10-14.8-14c-0.8-0.6-1.6-1.2-2.4-1.7l-8.8,9.1C146,41.3,151.4,46.1,156.1,51.7z"
       id="path16" /><path
       class="st2"
       d="M96.3,82.6l56.6-29.3l3.3-1.7c-4.7-5.6-10.2-10.4-16.2-14.4l-2.5,2.6L96.3,82.6z M152.9,53.4l3.3-1.7   L152.9,53.4z M185.9,95.9L173.4,95c0.1,1.5,0.2,3,0.2,4.5c0,5.4-0.6,10.8-1.8,16.1l11.8,4.1c0-0.2,0.1-0.4,0.1-0.5   c1.5-6.5,2.3-13.1,2.3-19.7c0-0.2,0-0.5,0-0.7C186,97.9,186,96.9,185.9,95.9z"
       id="path18" /><path
       class="st2"
       d="M173.4,95l-3.6-0.3l-73.6-5.3l72.2,25l3.3,1.2c1.2-5.3,1.8-10.7,1.8-16.1C173.6,98,173.5,96.5,173.4,95   L173.4,95z M171.9,83.5l12.6-0.4c-0.2-1.2-0.5-2.5-0.8-3.7c-1.6-6.5-3.9-12.8-6.9-18.8l-12,3.9C168,70.4,170.4,76.9,171.9,83.5z"
       id="path20" /><path
       class="st2"
       d="M97.4,86.1l70.8-2.4l3.6-0.1c-1.5-6.7-3.8-13.1-7.1-19.1l-3.4,1.1L97.4,86.1z"
       id="path22" /></g><g
     id="g33"
     style="fill:#ffffff"><path
       class="st3"
       d="m 325.9,144.4 c -12.4,12.2 -28.3,17.9 -45.7,17.9 -44.6,0 -63.5,-30.7 -63.7,-62 -0.2,-31.4 20.3,-63.3 63.7,-63.3 16.3,0 31.8,6.2 44.1,18.4 L 309.2,70 c -7.9,-7.7 -18.5,-11.3 -29,-11.3 -29,0 -41.5,21.6 -41.4,41.7 0.2,19.9 11.7,40.7 41.4,40.7 10.5,0 22.3,-4.3 30.2,-12.2 z"
       id="path25"
       inkscape:connector-curvature="0"
       style="fill:#ffffff" /><path
       class="st3"
       d="M 334.7,159.5 V 39.3 h 22.5 v 120.2 z"
       id="path27"
       inkscape:connector-curvature="0"
       style="fill:#ffffff" /><path
       class="st3"
       d="m 453.1,39.1 h 22.7 v 120.3 h -22.7 v 0.2 L 398.5,78.4 v 81 H 375.8 V 39.3 h 22.5 l 54.8,74.5 z"
       id="path29"
       inkscape:connector-curvature="0"
       style="fill:#ffffff" /><path
       class="st3"
       d="m 598.2,144.4 c -12.4,12.2 -28.3,17.9 -45.7,17.9 -44.6,0 -63.5,-30.7 -63.7,-62 -0.2,-31.4 20.3,-63.3 63.7,-63.3 16.3,0 31.8,6.2 44.1,18.4 L 581.5,70 c -7.9,-7.7 -18.5,-11.3 -29,-11.3 -29,0 -41.5,21.6 -41.4,41.7 0.2,19.9 11.7,40.7 41.4,40.7 10.5,0 22.3,-4.3 30.2,-12.2 z"
       id="path31"
       inkscape:connector-curvature="0"
       style="fill:#ffffff" /></g><polygon
     style="fill:#330080"
     id="polygon35"
     points="108.7,29.6 138.6,59.6 168.4,59.6 168.4,89.4 198.3,119.3 198.3,29.6 "
     class="st3" /><polygon
     style="fill:#330080"
     id="polygon37"
     points="88.5,139.5 88.5,109.7 58.5,79.8 58.5,169.5 148.2,169.5 118.2,139.5 "
     class="st3" /><polygon
     style="fill:#7f2aff"
     id="polygon39"
     points="58.5,29.6 58.5,50.8 88.5,80.8 88.5,38.4 79.7,29.6 "
     class="st3" /><polygon
     style="fill:#7f2aff"
     id="polygon41"
     points="96.7,89 177.2,169.5 198.3,169.5 198.3,148.3 96.7,46.7 "
     class="st3" /></svg>